<svg width="65" height="65" viewBox="0 0 65 65" fill="none" xmlns="http://www.w3.org/2000/svg">
<circle cx="32.5" cy="32.5" r="32.5" fill="black"/>
<path fill-rule="evenodd" clip-rule="evenodd" d="M24.7992 31.9205C26.1026 27.056 30.2151 23.6944 34.9237 23.1131C33.727 22.2101 32.3399 21.5177 30.8028 21.1058C24.4012 19.3905 17.8211 23.1895 16.1058 29.5911C14.3905 35.9927 18.1895 42.5727 24.5911 44.288C26.1283 44.6999 27.6757 44.7939 29.1636 44.6102C25.3764 41.7525 23.4957 36.7849 24.7992 31.9205ZM36.1822 47.3939C42.5838 49.1092 49.1639 45.3102 50.8792 38.9086C52.5945 32.507 48.7955 25.927 42.3939 24.2117C35.9923 22.4964 29.4123 26.2953 27.697 32.6969C25.9816 39.0985 29.7806 45.6786 36.1822 47.3939Z" fill="white"/>
</svg>
